<svg width="128" height="128" viewBox="0 0 128 128" fill="none" xmlns="http://www.w3.org/2000/svg">
<path d="M128 64C128 28.6538 99.3462 0 64 0C28.6538 0 0 28.6538 0 64C0 99.3462 28.6538 128 64 128C99.3462 128 128 99.3462 128 64Z" fill="url(#paint0_linear_1349_17)"/>
<mask id="mask0_1349_17" style="mask-type:alpha" maskUnits="userSpaceOnUse" x="0" y="0" width="128" height="128">
<path d="M128 64C128 28.6538 99.3462 0 64 0C28.6538 0 0 28.6538 0 64C0 99.3462 28.6538 128 64 128C99.3462 128 128 99.3462 128 64Z" fill="url(#paint1_linear_1349_17)"/>
</mask>
<g mask="url(#mask0_1349_17)">
<path d="M81.5003 16C43.7262 16 13 46.8902 13 84.8489V146.048H13.3882C15.2529 158.983 26.2511 168.998 39.639 168.998C48.5744 168.998 55.4245 165.807 59.9759 160.017C62.8065 162.873 66.1719 165.137 69.8779 166.68C73.584 168.221 77.5571 169.01 81.5682 169C85.5792 168.99 89.5484 168.182 93.2469 166.622C96.9454 165.062 100.3 162.779 103.116 159.909C107.69 165.738 114.563 168.998 123.362 168.998C138.051 168.998 150 156.988 150 142.223V84.8489C150 46.8902 119.274 16 81.5003 16ZM134.778 130.748C149.729 146.048 129.656 153.698 123.362 153.698C119.944 153.698 111.945 153.698 111.945 138.398V130.748H96.7225V138.398C96.7225 146.836 89.8954 153.698 81.5003 153.698C73.1051 153.698 66.278 146.836 66.278 138.398V130.748H51.0558V138.398C51.0558 152.512 45.1648 153.698 39.639 153.698C33.3446 153.698 28.2224 148.549 28.2224 142.223V84.8489C28.2224 55.3203 52.1289 31.2998 81.5003 31.2998C110.872 31.2998 134.778 55.3203 134.778 84.8489V130.748Z" fill="white"/>
<path d="M43.4445 77.1989C43.4445 81.2567 45.0483 85.1483 47.9031 88.0176C50.7578 90.8868 54.6296 92.4987 58.6669 92.4987C62.7041 92.4987 66.576 90.8868 69.4306 88.0176C72.2853 85.1483 73.8891 81.2567 73.8891 77.1989C73.8891 75.1898 73.4954 73.2003 72.7305 71.344C71.9654 69.4878 70.8442 67.8012 69.4306 66.3804C68.0171 64.9597 66.339 63.8328 64.4921 63.0639C62.6453 62.295 60.6659 61.8993 58.6669 61.8993C56.6679 61.8993 54.6885 62.295 52.8416 63.0639C50.9948 63.8328 49.3165 64.9597 47.9031 66.3804C46.4896 67.8012 45.3682 69.4878 44.6033 71.344C43.8384 73.2003 43.4445 75.1898 43.4445 77.1989Z" fill="white"/>
<path d="M89.1116 77.1989C89.1116 81.2567 90.7154 85.1483 93.57 88.0176C96.4247 90.8868 100.297 92.4987 104.334 92.4987C108.371 92.4987 112.243 90.8868 115.098 88.0176C117.952 85.1483 119.556 81.2567 119.556 77.1989C119.556 73.1413 117.952 69.2498 115.098 66.3804C112.243 63.5112 108.371 61.8993 104.334 61.8993C100.297 61.8993 96.4247 63.5112 93.57 66.3804C90.7154 69.2498 89.1116 73.1413 89.1116 77.1989Z" fill="white"/>
</g>
<defs>
<linearGradient id="paint0_linear_1349_17" x1="116" y1="135" x2="15" y2="-9" gradientUnits="userSpaceOnUse">
<stop stop-color="#2C0BFD"/>
<stop offset="0.979991" stop-color="#00FFE0"/>
</linearGradient>
<linearGradient id="paint1_linear_1349_17" x1="116" y1="135" x2="15" y2="-9" gradientUnits="userSpaceOnUse">
<stop stop-color="#2C0BFD"/>
<stop offset="0.979991" stop-color="#00FFE0"/>
</linearGradient>
</defs>
</svg>
