<svg width="128" height="128" viewBox="0 0 128 128" fill="none" xmlns="http://www.w3.org/2000/svg">
<rect width="128" height="128" rx="64" fill="url(#paint0_linear)"/>
<g filter="url(#filter0_d)">
<path d="M64.2987 19C42.0762 19 24 37.0807 24 59.2987V95.1197H24.2284C25.3254 102.691 31.7956 108.553 39.6717 108.553C44.9284 108.553 48.9583 106.685 51.6359 103.296C53.3011 104.968 55.281 106.293 57.4612 107.196C59.6415 108.098 61.9789 108.56 64.3386 108.554C66.6983 108.548 69.0334 108.075 71.2092 107.162C73.385 106.249 75.3583 104.913 77.0151 103.233C79.7062 106.645 83.7495 108.553 88.9256 108.553C97.5675 108.553 104.597 101.523 104.597 92.8809V59.2987C104.597 37.0807 86.5212 19 64.2987 19V19ZM95.6421 92.8809C95.6421 96.5839 92.6286 99.5974 88.9256 99.5974C86.9152 99.5974 82.2092 99.5974 82.2092 90.6421V86.1645H73.2539V90.6421C73.2539 95.5809 69.2375 99.5974 64.2987 99.5974C59.3598 99.5974 55.3434 95.5809 55.3434 90.6421V86.1645H46.3882V90.6421C46.3882 98.9033 42.9225 99.5974 39.6717 99.5974C35.9687 99.5974 32.9553 96.5839 32.9553 92.8809V59.2987C32.9553 42.015 47.0195 27.9553 64.2987 27.9553C81.5779 27.9553 95.6421 42.015 95.6421 59.2987V92.8809Z" fill="white"/>
<path d="M41.9105 54.821C41.9105 57.1961 42.854 59.4739 44.5335 61.1534C46.2129 62.8328 48.4907 63.7763 50.8658 63.7763C53.2409 63.7763 55.5187 62.8328 57.1981 61.1534C58.8775 59.4739 59.821 57.1961 59.821 54.821C59.821 53.645 59.5894 52.4805 59.1394 51.394C58.6893 50.3075 58.0297 49.3203 57.1981 48.4887C56.3665 47.6571 55.3793 46.9975 54.2928 46.5475C53.2063 46.0974 52.0418 45.8658 50.8658 45.8658C49.6898 45.8658 48.5253 46.0974 47.4388 46.5475C46.3523 46.9975 45.365 47.6571 44.5335 48.4887C43.7019 49.3203 43.0422 50.3075 42.5922 51.394C42.1422 52.4805 41.9105 53.645 41.9105 54.821V54.821Z" fill="white"/>
<path d="M68.7764 54.821C68.7764 57.1961 69.7199 59.4739 71.3993 61.1534C73.0787 62.8328 75.3565 63.7763 77.7316 63.7763C80.1067 63.7763 82.3845 62.8328 84.064 61.1534C85.7434 59.4739 86.6869 57.1961 86.6869 54.821C86.6869 52.446 85.7434 50.1682 84.064 48.4887C82.3845 46.8093 80.1067 45.8658 77.7316 45.8658C75.3565 45.8658 73.0787 46.8093 71.3993 48.4887C69.7199 50.1682 68.7764 52.446 68.7764 54.821V54.821Z" fill="white"/>
</g>
<defs>
<filter id="filter0_d" x="20" y="19" width="88.5974" height="97.5542" filterUnits="userSpaceOnUse" color-interpolation-filters="sRGB">
<feFlood flood-opacity="0" result="BackgroundImageFix"/>
<feColorMatrix in="SourceAlpha" type="matrix" values="0 0 0 0 0 0 0 0 0 0 0 0 0 0 0 0 0 0 127 0"/>
<feOffset dy="4"/>
<feGaussianBlur stdDeviation="2"/>
<feColorMatrix type="matrix" values="0 0 0 0 0 0 0 0 0 0 0 0 0 0 0 0 0 0 0.25 0"/>
<feBlend mode="normal" in2="BackgroundImageFix" result="effect1_dropShadow"/>
<feBlend mode="normal" in="SourceGraphic" in2="effect1_dropShadow" result="shape"/>
</filter>
<linearGradient id="paint0_linear" x1="116" y1="135" x2="15" y2="-9" gradientUnits="userSpaceOnUse">
<stop stop-color="#2C0BFD"/>
<stop offset="0.979991" stop-color="#00FFE0"/>
</linearGradient>
</defs>
</svg>
